# 3ds Max Wavefront OBJ Exporter v0.97b - (c)2007 guruware
# 创建的文件:27.06.2016 14:55:55

mtllib icon.mtl

#
# object Cylinder001
#

v  18.3683 -3.6633 -0.0000
v  14.8603 -3.6633 -10.7966
v  14.8603 3.6633 -10.7966
v  18.3683 3.6633 -0.0000
v  5.6761 -3.6633 -17.4693
v  5.6761 3.6633 -17.4693
v  -5.6761 -3.6633 -17.4693
v  -5.6761 3.6633 -17.4693
v  -14.8603 -3.6633 -10.7966
v  -14.8603 3.6633 -10.7966
v  -18.3683 -3.6633 0.0000
v  -18.3683 3.6633 0.0000
v  -14.8603 -3.6633 10.7966
v  -14.8603 3.6633 10.7966
v  -5.6761 -3.6633 17.4693
v  -5.6761 3.6633 17.4693
v  5.6761 -3.6633 17.4693
v  5.6761 3.6633 17.4693
v  14.8603 -3.6633 10.7966
v  14.8603 3.6633 10.7966
# 20 vertices

vn 1.0000 0.0000 -0.0000
vn 0.8090 0.0000 -0.5878
vn 0.3090 0.0000 -0.9511
vn -0.3090 0.0000 -0.9511
vn -0.8090 0.0000 -0.5878
vn -1.0000 0.0000 0.0000
vn -0.8090 0.0000 0.5878
vn -0.3090 0.0000 0.9511
vn 0.3090 0.0000 0.9511
vn 0.8090 0.0000 0.5878
vn 0.0000 -1.0000 -0.0000
vn 0.0000 1.0000 -0.0000
# 12 vertex normals

vt 0.6020 0.9726 0.0000
vt 0.5050 0.9726 0.0000
vt 0.5050 0.9100 0.0000
vt 0.6020 0.9100 0.0000
vt 0.4081 0.9726 0.0000
vt 0.4081 0.9100 0.0000
vt 0.3111 0.9726 0.0000
vt 0.3111 0.9100 0.0000
vt 0.2142 0.9726 0.0000
vt 0.2142 0.9100 0.0000
vt 0.1172 0.9726 0.0000
vt 0.1173 0.9100 0.0000
vt 0.0203 0.9726 0.0000
vt 0.0203 0.9100 0.0000
vt 0.9897 0.9726 0.0000
vt 0.8928 0.9726 0.0000
vt 0.8928 0.9100 0.0000
vt 0.9897 0.9100 0.0000
vt 0.7958 0.9726 0.0000
vt 0.7958 0.9100 0.0000
vt 0.6989 0.9726 0.0000
vt 0.6989 0.9100 0.0000
vt 0.6325 0.8702 0.0000
vt 0.3718 0.8672 0.0000
vt 0.1594 0.7096 0.0000
vt 0.9352 0.4611 0.0000
vt 0.0785 0.4514 0.0000
vt 0.1652 0.1951 0.0000
vt 0.3811 0.0423 0.0000
vt 0.6418 0.0452 0.0000
vt 0.8543 0.2029 0.0000
vt 0.8484 0.7174 0.0000
vt 0.8514 0.7135 0.0000
vt 0.6372 0.8688 0.0000
vt 0.3765 0.8688 0.0000
vt 0.8514 0.1989 0.0000
vt 0.1623 0.7135 0.0000
vt 0.0784 0.4562 0.0000
vt 0.1623 0.1989 0.0000
vt 0.3765 0.0437 0.0000
vt 0.6372 0.0437 0.0000
vt 0.9352 0.4562 0.0000
# 42 texture coords

g Cylinder001
usemtl 01___Default
s 8
f 1/1/1 2/2/2 3/3/2 4/4/1 
f 2/2/2 5/5/3 6/6/3 3/3/2 
f 5/5/3 7/7/4 8/8/4 6/6/3 
f 7/7/4 9/9/5 10/10/5 8/8/4 
f 9/9/5 11/11/6 12/12/6 10/10/5 
f 11/11/6 13/13/7 14/14/7 12/12/6 
f 13/15/7 15/16/8 16/17/8 14/18/7 
f 15/16/8 17/19/9 18/20/9 16/17/8 
f 17/19/9 19/21/10 20/22/10 18/20/9 
f 19/21/10 1/1/1 4/4/1 20/22/10 
s 1
f 17/23/11 15/24/11 13/25/11 1/26/11 
f 13/25/11 11/27/11 9/28/11 1/26/11 
f 9/28/11 7/29/11 5/30/11 1/26/11 
f 5/30/11 2/31/11 1/26/11 
f 19/32/11 17/23/11 1/26/11 
f 3/33/12 6/34/12 8/35/12 20/36/12 
f 8/35/12 10/37/12 12/38/12 20/36/12 
f 12/38/12 14/39/12 16/40/12 20/36/12 
f 16/40/12 18/41/12 20/36/12 
f 4/42/12 3/33/12 20/36/12 
# 16 polygons - 4 triangles

